<?xml version="1.0" encoding="UTF-8" standalone="no"?>
<!DOCTYPE svg PUBLIC "-//W3C//DTD SVG 1.1//EN"
 "http://www.w3.org/Graphics/SVG/1.1/DTD/svg11.dtd">
<!-- Generated by graphviz version 2.40.1 (20161225.0304)
 -->
<!-- Title: G Pages: 1 -->
<svg width="469pt" height="433pt"
 viewBox="0.00 0.00 469.25 433.00" xmlns="http://www.w3.org/2000/svg" xmlns:xlink="http://www.w3.org/1999/xlink">
<g id="graph0" class="graph" transform="scale(1 1) rotate(0) translate(4 429)">
<title>G</title>
<polygon fill="#ffffff" stroke="transparent" points="-4,4 -4,-429 465.2451,-429 465.2451,4 -4,4"/>
<g id="clust1" class="cluster">
<title>cluster_Global</title>
<path fill="none" stroke="#c0c0c0" d="M20,-8C20,-8 441.2451,-8 441.2451,-8 447.2451,-8 453.2451,-14 453.2451,-20 453.2451,-20 453.2451,-405 453.2451,-405 453.2451,-411 447.2451,-417 441.2451,-417 441.2451,-417 20,-417 20,-417 14,-417 8,-411 8,-405 8,-405 8,-20 8,-20 8,-14 14,-8 20,-8"/>
<text text-anchor="middle" x="230.6226" y="-404.2" font-family="Times,serif" font-size="11.00" fill="#c0c0c0">Global</text>
</g>
<g id="clust2" class="cluster">
<title>cluster_\Wasif</title>
<path fill="none" stroke="#c0c0c0" d="M28,-16C28,-16 433.2451,-16 433.2451,-16 439.2451,-16 445.2451,-22 445.2451,-28 445.2451,-28 445.2451,-378 445.2451,-378 445.2451,-384 439.2451,-390 433.2451,-390 433.2451,-390 28,-390 28,-390 22,-390 16,-384 16,-378 16,-378 16,-28 16,-28 16,-22 22,-16 28,-16"/>
<text text-anchor="middle" x="230.6226" y="-377.2" font-family="Times,serif" font-size="11.00" fill="#c0c0c0">Wasif</text>
</g>
<g id="clust3" class="cluster">
<title>cluster_\Wasif\tripSorter</title>
<path fill="none" stroke="#c0c0c0" d="M36,-24C36,-24 425.2451,-24 425.2451,-24 431.2451,-24 437.2451,-30 437.2451,-36 437.2451,-36 437.2451,-351 437.2451,-351 437.2451,-357 431.2451,-363 425.2451,-363 425.2451,-363 36,-363 36,-363 30,-363 24,-357 24,-351 24,-351 24,-36 24,-36 24,-30 30,-24 36,-24"/>
<text text-anchor="middle" x="230.6226" y="-350.2" font-family="Times,serif" font-size="11.00" fill="#c0c0c0">tripSorter</text>
</g>
<g id="clust4" class="cluster">
<title>cluster_\Wasif\tripSorter\BoardingCards</title>
<path fill="none" stroke="#c0c0c0" d="M44,-157C44,-157 417.2451,-157 417.2451,-157 423.2451,-157 429.2451,-163 429.2451,-169 429.2451,-169 429.2451,-324 429.2451,-324 429.2451,-330 423.2451,-336 417.2451,-336 417.2451,-336 44,-336 44,-336 38,-336 32,-330 32,-324 32,-324 32,-169 32,-169 32,-163 38,-157 44,-157"/>
<text text-anchor="middle" x="230.6226" y="-323.2" font-family="Times,serif" font-size="11.00" fill="#c0c0c0">BoardingCards</text>
</g>
<g id="clust5" class="cluster">
<title>cluster_\Wasif\tripSorter\libs</title>
<path fill="none" stroke="#c0c0c0" d="M67.1038,-78C67.1038,-78 364.4365,-78 364.4365,-78 370.4365,-78 376.4365,-84 376.4365,-90 376.4365,-90 376.4365,-137 376.4365,-137 376.4365,-143 370.4365,-149 364.4365,-149 364.4365,-149 67.1038,-149 67.1038,-149 61.1038,-149 55.1038,-143 55.1038,-137 55.1038,-137 55.1038,-90 55.1038,-90 55.1038,-84 61.1038,-78 67.1038,-78"/>
<text text-anchor="middle" x="215.7701" y="-136.2" font-family="Times,serif" font-size="11.00" fill="#c0c0c0">libs</text>
</g>
<!-- \\Wasif\\tripSorter\\BoardingCards\\BoardingcardAbstract -->
<g id="node1" class="node">
<title>\\Wasif\\tripSorter\\BoardingCards\\BoardingcardAbstract</title>
<polygon fill="none" stroke="#000000" points="188.0322,-255 39.9893,-255 39.9893,-219 188.0322,-219 188.0322,-255"/>
<text text-anchor="start" x="81.0054" y="-239.2" font-family="Courier,monospace" font-size="11.00" fill="#000000">«abstract»</text>
<text text-anchor="start" x="48" y="-228.2" font-family="Courier,monospace" font-size="11.00" fill="#000000">BoardingcardAbstract</text>
</g>
<!-- \\Wasif\\tripSorter\\BoardingCards\\BoardingcardAirportbus -->
<g id="node2" class="node">
<title>\\Wasif\\tripSorter\\BoardingCards\\BoardingcardAirportbus</title>
<polygon fill="none" stroke="#000000" points="421.3571,-309 259.9095,-309 259.9095,-273 421.3571,-273 421.3571,-309"/>
<text text-anchor="middle" x="340.6333" y="-287.7" font-family="Courier,monospace" font-size="11.00" fill="#000000">BoardingcardAirportbus</text>
</g>
<!-- \\Wasif\\tripSorter\\BoardingCards\\BoardingcardAirportbus&#45;&gt;\\Wasif\\tripSorter\\BoardingCards\\BoardingcardAbstract -->
<g id="edge1" class="edge">
<title>\\Wasif\\tripSorter\\BoardingCards\\BoardingcardAirportbus&#45;&gt;\\Wasif\\tripSorter\\BoardingCards\\BoardingcardAbstract</title>
<path fill="none" stroke="#000000" d="M264.8562,-272.9437C243.4321,-267.8387 219.9898,-262.2529 198.1076,-257.0387"/>
<polygon fill="none" stroke="#000000" points="198.7152,-253.5856 188.1762,-254.6723 197.0926,-260.395 198.7152,-253.5856"/>
</g>
<!-- \\Wasif\\tripSorter\\BoardingCards\\BoardingcardFlight -->
<g id="node3" class="node">
<title>\\Wasif\\tripSorter\\BoardingCards\\BoardingcardFlight</title>
<polygon fill="none" stroke="#000000" points="407.9528,-255 273.3138,-255 273.3138,-219 407.9528,-219 407.9528,-255"/>
<text text-anchor="middle" x="340.6333" y="-233.7" font-family="Courier,monospace" font-size="11.00" fill="#000000">BoardingcardFlight</text>
</g>
<!-- \\Wasif\\tripSorter\\BoardingCards\\BoardingcardFlight&#45;&gt;\\Wasif\\tripSorter\\BoardingCards\\BoardingcardAbstract -->
<g id="edge2" class="edge">
<title>\\Wasif\\tripSorter\\BoardingCards\\BoardingcardFlight&#45;&gt;\\Wasif\\tripSorter\\BoardingCards\\BoardingcardAbstract</title>
<path fill="none" stroke="#000000" d="M273.2526,-237C249.7446,-237 223.0616,-237 198.3495,-237"/>
<polygon fill="none" stroke="#000000" points="198.2608,-233.5001 188.2608,-237 198.2608,-240.5001 198.2608,-233.5001"/>
</g>
<!-- \\Wasif\\tripSorter\\BoardingCards\\BoardingcardTrain -->
<g id="node4" class="node">
<title>\\Wasif\\tripSorter\\BoardingCards\\BoardingcardTrain</title>
<polygon fill="none" stroke="#000000" points="404.8517,-201 276.4149,-201 276.4149,-165 404.8517,-165 404.8517,-201"/>
<text text-anchor="middle" x="340.6333" y="-179.7" font-family="Courier,monospace" font-size="11.00" fill="#000000">BoardingcardTrain</text>
</g>
<!-- \\Wasif\\tripSorter\\BoardingCards\\BoardingcardTrain&#45;&gt;\\Wasif\\tripSorter\\BoardingCards\\BoardingcardAbstract -->
<g id="edge3" class="edge">
<title>\\Wasif\\tripSorter\\BoardingCards\\BoardingcardTrain&#45;&gt;\\Wasif\\tripSorter\\BoardingCards\\BoardingcardAbstract</title>
<path fill="none" stroke="#000000" d="M276.2986,-198.3298C251.9313,-204.1361 223.8222,-210.834 197.9161,-217.0069"/>
<polygon fill="none" stroke="#000000" points="197.024,-213.6214 188.1076,-219.3441 198.6466,-220.4308 197.024,-213.6214"/>
</g>
<!-- \\Wasif\\tripSorter\\libs\\Sorter -->
<g id="node5" class="node">
<title>\\Wasif\\tripSorter\\libs\\Sorter</title>
<polygon fill="none" stroke="#000000" points="368.2411,-122 313.0255,-122 313.0255,-86 368.2411,-86 368.2411,-122"/>
<text text-anchor="middle" x="340.6333" y="-100.7" font-family="Courier,monospace" font-size="11.00" fill="#000000">Sorter</text>
</g>
<!-- \\Wasif\\tripSorter\\libs\\SortInterface -->
<g id="node6" class="node">
<title>\\Wasif\\tripSorter\\libs\\SortInterface</title>
<polygon fill="none" stroke="#000000" points="164.8249,-122 63.1966,-122 63.1966,-86 164.8249,-86 164.8249,-122"/>
<text text-anchor="middle" x="114.0107" y="-100.7" font-family="Courier,monospace" font-size="11.00" fill="#000000">SortInterface</text>
</g>
<!-- \\Wasif\\tripSorter\\libs\\Sorter&#45;&gt;\\Wasif\\tripSorter\\libs\\SortInterface -->
<g id="edge4" class="edge">
<title>\\Wasif\\tripSorter\\libs\\Sorter&#45;&gt;\\Wasif\\tripSorter\\libs\\SortInterface</title>
<path fill="none" stroke="#000000" stroke-dasharray="1,5" d="M312.8449,-104C278.7433,-104 219.9338,-104 175.093,-104"/>
<polygon fill="none" stroke="#000000" points="174.8869,-100.5001 164.8869,-104 174.8869,-107.5001 174.8869,-100.5001"/>
</g>
<!-- \\Wasif\\tripSorter\\Trip -->
<g id="node7" class="node">
<title>\\Wasif\\tripSorter\\Trip</title>
<polygon fill="none" stroke="#000000" points="367.6333,-68 313.6333,-68 313.6333,-32 367.6333,-32 367.6333,-68"/>
<text text-anchor="middle" x="340.6333" y="-46.7" font-family="Courier,monospace" font-size="11.00" fill="#000000">Trip</text>
</g>
</g>
</svg>
